{"title":"Tammy.2014.DVDRip.XViD.AC3.CrEwSaDe","uid":11643792,"size":1629173054,"categoryP":"video","categoryS":"movies","magnet":"?xt=urn:btih:3bd72b61ed14075572e5a12dc55379caab3912f7&amp;dn=Tammy.2014.DVDRip.XViD.AC3.CrEwSaDe&amp;tr=udp%3A%2F%2Ftracker.openbittorrent.com%3A80&amp;tr=udp%3A%2F%2Fopen.demonii.com%3A1337&amp;tr=udp%3A%2F%2Ftracker.coppersurfer.tk%3A6969&amp;tr=udp%3A%2F%2Fexodus.desync.com%3A6969","seeders":4,"leechers":0,"uploader":"TvTeam","files":4,"time":1417794179,"description":" &lt;a href=&quot;https://www.torrenting.com&quot; rel=&quot;nofollow&quot; target=&quot;_NEW&quot;&gt;https://www.torrenting.com&lt;/a&gt;\n\nSign up is OPEN - for time being. Come and have fun.\n\n------------------------------------------------------------------\n                                 [color=green]Release Brought to you by CrEwSaDe[/color]\n                              \n\n[color=green]Poster[/color]\n\n[img]http://i.imgur.com/sZkz7WM.jpg[/img]\n\n[color=blue]\n******************************************************************************************************           \n\n                     **[/color] [color=green]Tammy.2014.DVDRip.XViD.AC3.CrEwSaDe[/color] [color=blue]**\n\n******************************************************************************************************[/color]\n\n\n\n[IMG]http://i.imgur.com/mSjwXjs.gif[/IMG]\n\n                                                  \nVideo Codec.......: XVID\nVideo Bitrate.....: 1 854 Kbps                          \nAudio Codec.......: A_AC3                         \nAudio Bitrate.....: 384 Kbps                         \nResolution........: 720 pixels x 392 pixels\nRuntime...........: 1h 36mn                        \nRelease Date......: 05/12/2014\nTheatre Date......: 04/07/2014\nLanguage..........: English\nSubtitles.........: Nope\nIMDB Rating.......: 4.8/10\nIMDb URL..........: http://www.imdb.com/title/tt2103254\nGENRE.............: Comedy\n\n\n[color=blue]_______________________________________________________________________________[/color]\n\n\n[IMG]http://i.imgur.com/9Z7M0r7.gif[/IMG]\n\n\nComplete name                            : C:UsersAdminDesktopTammy.2014.DVDRip.XViD.AC3.CrEwSaDeTammy.2014.DVDRip.XViD.AC3.CrEwSaDe.avi\nFormat                                   : AVI\nFormat/Info                              : Audio Video Interleave\nFile size                                : 1.50 GiB\nDuration                                 : 1h 36mn\nOverall bit rate                         : 2 233 Kbps\n\n\n[color=blue]________________________________________________________________________________[/color]\n\n\n[IMG]http://i.imgur.com/tDE5iOF.gif[/IMG]\n\nID                                       : 0\nFormat                                   : MPEG-4 Visual\nFormat profile                           : Advanced Simple@L5\nFormat settings, BVOP                    : 2\nFormat settings, QPel                    : Yes\nFormat settings, GMC                     : No warppoints\nFormat settings, Matrix                  : Default (H.263)\nCodec ID                                 : XVID\nCodec ID/Hint                            : XviD\nDuration                                 : 1h 36mn\nBit rate                                 : 1 854 Kbps\nWidth                                    : 720 pixels\nHeight                                   : 392 pixels\nDisplay aspect ratio                     : 1.85:1\nFrame rate                               : 25.000 fps\nColor space                              : YUV\nChroma subsampling                       : 4:2:0\nBit depth                                : 8 bits\nScan type                                : Progressive\nCompression mode                         : Lossy\nBits/(Pixel*Frame)                       : 0.263\nStream size                              : 1.24 GiB (83%)\nWriting library                          : XviD 1.2.1 (UTC 2008-12-04)\n\n\n[color=blue]_________________________________________________________________________________[/color]\n\n\n[IMG]http://i.imgur.com/UReNJEI.gif[/IMG]\n\nID                                       : 1\nFormat                                   : AC-3\nFormat/Info                              : Audio Coding 3\nMode extension                           : CM (complete main)\nFormat settings, Endianness              : Big\nCodec ID                                 : 2000\nDuration                                 : 1h 32mn\nBit rate mode                            : Constant\nBit rate                                 : 384 Kbps\nChannel(s)                               : 6 channels\nChannel positions                        : Front: L C R, Side: L R, LFE\nSampling rate                            : 48.0 KHz\nBit depth                                : 16 bits\nCompression mode                         : Lossy\nStream size                              : 255 MiB (17%)\nAlignment                                : Aligned on interleaves\nInterleave, duration                     : 66 ms (1.66 video frames)\nInterleave, preload duration             : 192 ms\nTitle                                    : VTS_01_1 T80 3_2ch 384Kbps DELAY 0ms_new\n              \n\n[color=blue]_________________________________________________________________________________[/color]\n\n\n\n[IMG]http://i.imgur.com/GwKJhbW.gif[/IMG]\n\n\n[color=green]VIDEO: Tammy.PAL.DVDR-iGNiTiON Thanks[/color] \n[color=green]AUDIO: Tammy.PAL.DVDR-iGNiTiON Thanks[/color] \n\n\n[color=blue]_________________________________________________________________________________[/color]\n\n\n[IMG]http://i.imgur.com/kFUXqwj.gif[/IMG]\n\n\nAfter losing her job and learning that her husband has been unfaithful, a woman hits the road with her profane, hard-drinking grandmother.\n\n\n[color=blue]_________________________________________________________________________________[/color]\n\n\n[IMG]http://i.imgur.com/1Wjvkx5.gif[/IMG]\n\n\nMelissa McCarthy\nSusan Sarandon\nKathy Bates  \n\n\n[color=blue]_________________________________________________________________________________[/color] \n\n\n[IMG]http://i.imgur.com/O0UeWPU.gif[/IMG]\n\n[img]http://i.imgur.com/gWMWgnz.png[/img]\n[img]http://i.imgur.com/VRvfatZ.png[/img]\n[img]http://i.imgur.com/iFSi8ux.png[/img]\n[img]http://i.imgur.com/8niRCtz.png[/img]\n[img]http://i.imgur.com/LnkoJkq.png[/img]\n\n\n\n[color=blue]_________________________________________________________________________________[/color]\n\n\n[IMG]http://i.imgur.com/yS1r7oo.gif[/IMG]\n\n\n\n[color=blue]_________________________________________________________________________________[/color]\n\n\n\n[IMG]http://i.imgur.com/9YwlQZv.gif[/IMG]\n\nYes\n\n[color=blue]_________________________________________________________________________________[/color]\n\n\n\n[IMG]http://i.imgur.com/JxDWlgB.gif[/IMG]\n\nNothing Here Move Along.......:-)\n\n[color=blue]_________________________________________________________________________________[/color]\n\n\n\n[IMG]http://i.imgur.com/GETzsUr.gif[/IMG]\n\nAll our home site staff for getting us such great sources :-) also our friends\n\nLEGiON,JTR,SAFC,jamie111, CrEwSaDe members Past and present, all other p2pgroups past and present, That made all this possible and the present ones that continue to work so hard at what we do \n\n\n[color=blue]__________________________________________________________________________________[/color]\n\n\nWE DONT RELEASE EVERYTHiNG TO OTHERS SiTES YOU WANT MORE OF OUR STUFF COME FiND US AT .......\n\nCrEwSaDe are currently Looking for unreleased DVD's,Screeners,New Music Releases,R5's,Audio,Cams,\nSilvers,syncers,cammers and Any Other Good Sources You May Have To Offer\nContact us @ &lt;a class=&quot;__cf_email__&quot; href=&quot;/cdn-cgi/l/email-protection&quot; data-cfemail=&quot;a0e3d2e5d7f3c1e4c5e0c8d5d3c8cdc1c9cc8ec3cfcd&quot;&gt;[email&amp;#160;protected]&lt;/a&gt;&lt;script cf-hash='f9e31' type=&quot;text/javascript&quot;&gt;\n/* &lt;![CDATA[ */!function(){try{var t=&quot;currentScript&quot;in document?document.currentScript:function(){for(var t=document.getElementsByTagName(&quot;script&quot;),e=t.length;e--;)if(t[e].getAttribute(&quot;cf-hash&quot;))return t[e]}();if(t&amp;&amp;t.previousSibling){var e,r,n,i,c=t.previousSibling,a=c.getAttribute(&quot;data-cfemail&quot;);if(a){for(e=&quot;&quot;,r=parseInt(a.substr(0,2),16),n=2;a.length-n;n+=2)i=parseInt(a.substr(n,2),16)^r,e+=String.fromCharCode(i);e=document.createTextNode(e),c.parentNode.replaceChild(e,c)}}}catch(u){}}();/* ]]&gt; */&lt;/script&gt;\n\n\n\n[IMG]http://i1179.photobucket.com/albums/x394/crewsade/crew1.png[/IMG]","torrent":{"xt":"urn:btih:3bd72b61ed14075572e5a12dc55379caab3912f7","amp;dn":"Tammy.2014.DVDRip.XViD.AC3.CrEwSaDe","amp;tr":["udp%3A%2F%2Ftracker.openbittorrent.com%3A80","udp%3A%2F%2Fopen.demonii.com%3A1337","udp%3A%2F%2Ftracker.coppersurfer.tk%3A6969","udp%3A%2F%2Fexodus.desync.com%3A6969"],"infoHash":"3bd72b61ed14075572e5a12dc55379caab3912f7","infoHashBuffer":{"type":"Buffer","data":[59,215,43,97,237,20,7,85,114,229,161,45,197,83,121,202,171,57,18,247]},"announce":[],"urlList":[]}}